<svg xmlns="http://www.w3.org/2000/svg" viewBox="0 0 32 32">
  <circle cx="16" cy="16" r="16" fill="#F0B90B"/>
  <path fill="white" d="M16 5.5L12.5 9l2.1 2.1L16 9.7l1.4 1.4L19.5 9 16 5.5z"/>
  <path fill="white" d="M9.5 12L6 15.5l2.1 2.1L9.5 16.2l1.4 1.4L13 15.5 9.5 12z"/>
  <path fill="white" d="M22.5 12L19 15.5l2.1 2.1 1.4-1.4 1.4 1.4L26 15.5 22.5 12z"/>
  <path fill="white" d="M16 18.3l-2.1 2.1L12.5 19 9 22.5l3.5 3.5 2.1-2.1L16 22.5l1.4 1.4 2.1 2.1 3.5-3.5-3.5-3.5-1.4 1.4L16 18.3z"/>
  <path fill="white" d="M16 12.5l-2.1 2.1L16 16.7l2.1-2.1L16 12.5z"/>
</svg>
